<?xml version="1.0" encoding="UTF-8" standalone="no"?>
<svg width="21px" height="18px" viewBox="0 0 21 18" version="1.1" xmlns="http://www.w3.org/2000/svg" xmlns:xlink="http://www.w3.org/1999/xlink">
    <!-- Generator: Sketch 43 (38999) - http://www.bohemiancoding.com/sketch -->
    <title>Download-Copy</title>
    <desc>Created with Sketch.</desc>
    <defs></defs>
    <g id="Page-1" stroke="none" stroke-width="1" fill="none" fill-rule="evenodd">
        <g id="Home" transform="translate(-676.000000, -3294.000000)" fill="#F38C3E">
            <g id="Group-15" transform="translate(665.000000, 3283.000000)">
                <path d="M21.501875,17 C21.085625,17 20.751875,17.2986667 20.751875,17.6666667 L20.751875,26.75 L19.030625,25.1953333 C18.738125,24.935 18.2610702,24.9052124 17.969375,25.1953333 C17.6776797,25.4854543 17.676875,25.878 17.969375,26.1383333 L20.969375,28.805 C21.115625,28.935 21.310625,29 21.501875,29 C21.693125,29 21.884375,28.935 22.030625,28.805 L25.030625,26.1383333 C25.323125,25.878 25.323125,25.4556667 25.030625,25.1953333 C24.738125,24.935 24.261875,24.935 23.969375,25.1953333 L22.251875,26.75 L22.251875,17.6666667 C22.251875,17.2986667 21.914375,17 21.501875,17 L21.501875,17 L21.501875,17 Z M22.25,11 C18.8932813,11 15.9054688,13.1326786 15.0720313,16.1428571 L14.9375,16.1428571 C12.7653125,16.1428571 11,17.75 11,20 C11,22.25 12.3125,23.75 14.75,23.75 L18.5,23.75 C18.5,23.75 19.25,23.75 19.25,23 C19.25,22.25 18.5,22.25 18.5,22.25 L14.75,22.25 C13.3029687,22.25 12.4887848,21.5094986 12.4960289,20 C12.503273,18.4905014 13.4904687,17.4285714 14.9375,17.4285714 L15.59375,17.4285714 C15.90875,17.4285714 16.1810938,17.2083929 16.236875,16.9046429 C16.7520313,14.2284286 19.3329687,12.5 22.25,12.5 C25.505,12.5 28.0625,14.88125 28.0625,18.0714286 C28.0625,18.4266071 28.3545313,18.7142857 28.71875,18.7142857 C29.7496109,18.7142857 30.5050812,19.6867143 30.5050812,20.75 C30.5050812,21.8136072 29.8048437,22.25 28.71875,22.25 L24.5,22.25 C24.5,22.25 23.75,22.25 23.75,23 C23.75,23.75 24.5,23.75 24.5,23.75 L28.25,23.75 C30.6875,23.75 32,22.3571428 32,20.75 C32,19.1894643 30.858125,17.7779643 29.34875,17.4883571 C29.046875,13.8610357 26.03,11 22.25,11 L22.25,11 Z" id="Download-Copy"></path>
            </g>
        </g>
    </g>
</svg>