<svg width="14" height="14" viewBox="0 0 14 14" xmlns="http://www.w3.org/2000/svg"><title>Play</title><path d="M7 0C3.15 0 0 3.15 0 7s3.15 7 7 7 7-3.15 7-7-3.15-7-7-7zM1.167 7c0-3.208 2.625-5.833 5.833-5.833S12.833 3.792 12.833 7 10.208 12.833 7 12.833 1.167 10.208 1.167 7zm9.154-.656a1.167 1.167 0 0 1-.309 1.62L6.49 10.362a1.167 1.167 0 0 1-1.823-.965V4.603a1.167 1.167 0 0 1 1.823-.965l3.522 2.398c.122.082.226.186.309.308zM5.833 4.603v4.794L9.356 7 5.833 4.603z" fill="#32363E" fill-rule="evenodd"/></svg>