<svg width="12" height="14" viewBox="0 0 12 14" xmlns="http://www.w3.org/2000/svg"><title>youtube-logo</title><path d="M10.016 9.6h-.725l.004-.418a.34.34 0 0 1 .341-.338h.046c.188 0 .342.152.342.338l-.008.418zm-2.718-.896c-.184 0-.334.123-.334.273v2.035c0 .15.15.272.334.272.184 0 .335-.122.335-.272V8.977c0-.15-.15-.273-.335-.273zm4.414-1.138v3.87c0 .93-.81 1.689-1.8 1.689H2.508c-.99 0-1.8-.76-1.8-1.688V7.566c0-.929.81-1.689 1.8-1.689h7.404c.99 0 1.8.76 1.8 1.689zm-8.71 4.291V7.779h.917v-.604l-2.446-.003v.594l.764.002v4.089h.765zm2.751-3.47h-.765v2.177c0 .315.02.473-.001.528-.062.17-.342.348-.45.018-.02-.057-.003-.232-.003-.53L4.53 8.386h-.76l.002 2.158c0 .33-.008.577.003.69.018.197.012.428.196.56.345.246 1.004-.037 1.17-.39l-.002.45.614.001v-3.47zm2.448 2.493L8.2 9.068c-.001-.69-.52-1.104-1.226-.545l.003-1.348-.765.001-.003 4.65.628-.008.057-.29c.803.732 1.308.23 1.307-.648zm2.395-.24l-.574.003-.001.077v.318c0 .17-.142.31-.314.31h-.112a.312.312 0 0 1-.314-.31v-.837h1.314V9.71c0-.36-.01-.718-.04-.924-.094-.65-1.01-.752-1.474-.42a.86.86 0 0 0-.321.43c-.065.187-.098.442-.098.766v1.08c0 1.797 2.196 1.543 1.934-.002zM7.653 4.773c.04.096.1.173.184.231a.535.535 0 0 0 .313.087A.49.49 0 0 0 8.443 5a.7.7 0 0 0 .215-.273l-.015.299h.853V1.42h-.671v2.806a.28.28 0 1 1-.56 0V1.42h-.7v2.432c0 .31.006.516.015.621.01.104.033.204.073.3zM5.068 2.737c0-.346.03-.616.087-.81a.905.905 0 0 1 .313-.469.909.909 0 0 1 .579-.177c.197 0 .366.038.507.114a.844.844 0 0 1 .327.295c.078.122.13.248.158.376.029.13.043.326.043.59v.912c0 .334-.014.58-.04.737a1.163 1.163 0 0 1-.168.438.795.795 0 0 1-.328.3 1.053 1.053 0 0 1-.463.096c-.194 0-.358-.027-.493-.082a.676.676 0 0 1-.315-.25 1.106 1.106 0 0 1-.16-.404 3.872 3.872 0 0 1-.047-.711v-.955zm.668 1.432c0 .205.153.371.34.371.186 0 .338-.166.338-.37V2.25c0-.204-.152-.37-.339-.37-.186 0-.339.166-.339.37v1.92zm-2.36.97h.804l.001-2.766.951-2.368h-.88l-.506 1.76L3.234 0h-.871l1.011 2.375.002 2.763z" fill-rule="evenodd" opacity=".5"/></svg>