<svg width="21" height="18" viewBox="0 0 21 18" xmlns="http://www.w3.org/2000/svg"><title>Download-Copy</title><path d="M10.502 6c-.416 0-.75.299-.75.667v9.083L8.03 14.195c-.293-.26-.77-.29-1.062 0-.291.29-.292.683 0 .943l3 2.667c.147.13.342.195.533.195a.795.795 0 0 0 .529-.195l3-2.667a.616.616 0 0 0 0-.943.819.819 0 0 0-1.062 0l-1.717 1.555V6.667c0-.368-.338-.667-.75-.667zm.748-6C7.893 0 4.905 2.133 4.072 5.143h-.135C1.765 5.143 0 6.75 0 9s1.313 3.75 3.75 3.75H7.5s.75 0 .75-.75-.75-.75-.75-.75H3.75c-1.447 0-2.261-.74-2.254-2.25.007-1.51.994-2.571 2.442-2.571h.656a.65.65 0 0 0 .643-.524C5.752 3.228 8.333 1.5 11.25 1.5c3.255 0 5.813 2.381 5.813 5.571 0 .356.292.643.656.643 1.03 0 1.786.973 1.786 2.036 0 1.064-.7 1.5-1.786 1.5H13.5s-.75 0-.75.75.75.75.75.75h3.75c2.438 0 3.75-1.393 3.75-3 0-1.56-1.142-2.972-2.651-3.262A7.078 7.078 0 0 0 11.25 0z" fill="#F38C3E" fill-rule="evenodd"/></svg>