<svg width="14" height="13" viewBox="0 0 14 13" xmlns="http://www.w3.org/2000/svg"><title>instagram-symbol</title><path d="M12.83.722a1.604 1.604 0 0 0-1.164-.477H2.099c-.452 0-.84.16-1.165.477A1.543 1.543 0 0 0 .45 1.864v9.384c0 .443.162.824.485 1.142a1.61 1.61 0 0 0 1.165.476h9.567c.452 0 .84-.159 1.164-.476.324-.318.486-.699.486-1.142V1.864c0-.444-.162-.824-.486-1.142zM5.07 4.793a2.554 2.554 0 0 1 1.822-.719c.715 0 1.325.24 1.83.72.506.479.758 1.058.758 1.737 0 .68-.252 1.259-.758 1.738-.505.48-1.115.719-1.83.719a2.55 2.55 0 0 1-1.822-.72c-.506-.478-.758-1.058-.758-1.737 0-.68.252-1.258.758-1.738zm6.79 6.118c0 .142-.05.261-.151.357a.504.504 0 0 1-.36.144H2.391a.5.5 0 0 1-.51-.501V5.586h1.18a3.476 3.476 0 0 0-.167 1.077c0 1.052.39 1.948 1.173 2.69.782.743 1.723 1.114 2.823 1.114a4.08 4.08 0 0 0 2.01-.51c.615-.34 1.1-.8 1.458-1.384.358-.583.536-1.22.536-1.91 0-.373-.056-.732-.167-1.077h1.13v5.325zm0-7.338a.542.542 0 0 1-.168.403.563.563 0 0 1-.41.164h-1.46a.564.564 0 0 1-.41-.164.542.542 0 0 1-.168-.403V2.217c0-.153.056-.286.167-.398a.557.557 0 0 1 .41-.169h1.458c.162 0 .3.057.41.169a.546.546 0 0 1 .169.398v1.356z" fill-rule="evenodd" opacity=".5"/></svg>