<svg width="18" height="18" viewBox="0 0 18 18" xmlns="http://www.w3.org/2000/svg"><title>Shape</title><path d="M9.86 9.898a1.5 1.5 0 0 1-1.72 0L1.5 5.25h15L9.86 9.898zM16.5 16.5h-15V6.75l6.64 4.648a1.5 1.5 0 0 0 1.72 0L16.5 6.75v9.75zM1.5 3.75A1.5 1.5 0 0 0 0 5.25V16.5A1.5 1.5 0 0 0 1.5 18h15a1.5 1.5 0 0 0 1.5-1.5V5.25a1.5 1.5 0 0 0-1.5-1.5h-15zm12-.75a.75.75 0 0 0 .75-.75V1.5a.75.75 0 1 0-1.5 0v.75c0 .415.336.75.75.75zM9 3a.75.75 0 0 0 .75-.75V.75a.75.75 0 1 0-1.5 0v1.5c0 .415.336.75.75.75zM4.5 3a.75.75 0 0 0 .75-.75V1.5a.75.75 0 1 0-1.5 0v.75c0 .415.336.75.75.75z" fill="#F38C3E" fill-rule="evenodd"/></svg>