<svg width="49" height="51" viewBox="0 0 49 51" xmlns="http://www.w3.org/2000/svg" xmlns:xlink="http://www.w3.org/1999/xlink"><title>Page 1</title><defs><path id="a" d="M47.389.392H.009v38.224h47.38V.392z"/></defs><g fill="none" fill-rule="evenodd" opacity=".2"><path d="M13.993 34.282L3.856 49.614c11.122 5.095 24.357-6.335 20.18-16.48C18.473 22.073 2.026 19.365.477 12.48-.039 17.39-2.76 26.8 13.993 34.282" fill="#000"/><g transform="translate(1.519 .103)"><mask id="b" fill="#fff"><use xlink:href="#a"/></mask><path d="M28.15 22.224c.19-1.045-.153-4.667-3.588-6.907 3.74-4.966 10.993-15.607 22.827-5.302-7.979 1.12-20.45 24.872-22.293 28.6C29.148 18.926-10.324 21.709 2.632.393 7.596 12.116 24.85 13.596 28.15 22.224" fill="#000" mask="url(#b)"/></g></g></svg>