<svg width="14" height="14" viewBox="0 0 14 14" xmlns="http://www.w3.org/2000/svg"><title>Sound</title><path d="M11.797 3.862c1.384 1.722 1.384 4.556 0 6.278a.584.584 0 1 0 .91.733c1.727-2.15 1.727-5.593 0-7.743a.583.583 0 1 0-.91.732zM3.5 3.496L7.285.132c.339-.316.883-.025.883.444v12.85c0 .47-.544.757-.883.441l-3.8-3.357-2.318-.004C.583 10.506 0 9.916 0 9.338V4.664c0-.58.583-1.168 1.11-1.168H3.5zm0 1.166H1.544c-.209 0-.377.19-.377.39v3.9c0 .198.21.39.417.39L3.5 9.337l2.87 2.248c.241.211.63.019.63-.294V2.712c0-.313-.389-.507-.63-.296L3.5 4.662z" fill="#32363E" fill-rule="evenodd"/></svg>