<svg width="15" height="13" viewBox="0 0 15 13" xmlns="http://www.w3.org/2000/svg"><title>twitter-logo-silhouette</title><path d="M14.343 2.187a5.927 5.927 0 0 1-1.686.456 2.915 2.915 0 0 0 1.29-1.6 5.969 5.969 0 0 1-1.865.702A2.947 2.947 0 0 0 9.939.83c-1.621 0-2.936 1.297-2.936 2.895 0 .227.026.448.076.66A8.374 8.374 0 0 1 1.03 1.36a2.843 2.843 0 0 0-.397 1.455c0 1.004.519 1.89 1.306 2.41a2.967 2.967 0 0 1-1.33-.364v.036c0 1.402 1.012 2.573 2.354 2.839a3.013 3.013 0 0 1-.773.101 2.88 2.88 0 0 1-.553-.053 2.932 2.932 0 0 0 2.742 2.01 5.943 5.943 0 0 1-3.646 1.238c-.237 0-.47-.014-.7-.04a8.383 8.383 0 0 0 4.5 1.303c5.4 0 8.352-4.412 8.352-8.238l-.01-.374a5.819 5.819 0 0 0 1.469-1.496z" fill="#010002" fill-rule="evenodd" opacity=".5"/></svg>